<svg width="40" height="40" xmlns="http://www.w3.org/2000/svg" fill="none">
 <defs>
  <clipPath id="clip0">
   <rect id="svg_1" x="15.07788" y="11.2499" fill="white" height="5.4104" width="5.4104"/>
  </clipPath>
 </defs>
 <g>
  <title>Layer 1</title>
  <g stroke="null" id="svg_16">
   <path stroke="null" id="svg_9" fill="#3C2161" d="m35.83333,15.11526c0,0 -1.32805,-2.4516 -1.12374,-4.18815c-0.215,0.07167 -0.37972,0.19361 -0.56472,0.33055c-0.07861,0.05825 -0.16097,0.11922 -0.2525,0.18019l-0.2043,0c0,0 0.10222,-0.91936 1.02152,-1.63441l0.10222,0l0.10208,-0.4086l-1.83874,-1.2258c-1.94082,-2.96236 -5.31178,-5.20967 -8.88704,-5.82257c-0.10208,0 -0.30639,0 -0.40861,-0.10215c-0.15319,0 -0.28083,-0.02554 -0.40861,-0.05108c-0.12764,-0.02553 -0.25528,-0.05107 -0.40861,-0.05107c0.40861,0.10215 0.71514,0.2043 1.12374,0.4086c1.43013,0.51076 2.65582,1.32797 3.77957,2.34946c0.13264,0.13261 0.27597,0.26522 0.42305,0.40133c0.30625,0.28326 0.62889,0.58164 0.90486,0.92662c-0.40861,-0.30644 -0.715,-0.51075 -1.12361,-0.71505c-0.51083,-0.20429 -1.12374,-0.4086 -1.73666,-0.6129c0.30653,0.30646 0.71514,0.91936 0.91944,1.4301c-1.94082,-2.24731 -4.80109,-3.8817 -7.76344,-4.39247c-0.40861,-0.20429 -0.9193,-0.30644 -1.32791,-0.30644c0.05097,0 0.12764,0.02554 0.2043,0.05107c0.07653,0.02554 0.15319,0.05108 0.2043,0.05108c0.10208,0.05107 0.2043,0.07661 0.30639,0.10214c0.10208,0.02554 0.2043,0.05108 0.30639,0.10215c2.24735,0.8172 4.18817,2.24731 5.51622,4.08602c-0.91944,-0.91936 -1.83874,-1.53226 -2.96235,-1.94087l-0.51083,0c-9.70426,0 -17.56978,7.86557 -17.56978,17.56983c0,2.45166 0.51069,4.69901 1.42999,6.84413c0,-0.19292 -0.02264,-0.38583 -0.04681,-0.58958c-0.02681,-0.22764 -0.05528,-0.46875 -0.05528,-0.73847c0,-0.9193 0.10208,-1.8386 0.2043,-2.65582c0.9193,6.129 5.31178,11.543 11.74731,13.27952c2.14513,0.61291 4.29026,0.715 6.43539,0.40861c0.81722,-0.10222 1.53235,-0.2043 2.34957,-0.51083c0.10208,-0.05097 0.20417,-0.07653 0.30639,-0.10208c0.10208,-0.02556 0.2043,-0.05111 0.30639,-0.10222c-1.42999,0.10222 -2.86013,-0.10208 -4.08595,-0.61277c-0.05111,0 -0.12764,-0.02556 -0.2043,-0.05111c-0.07667,-0.02556 -0.15319,-0.05111 -0.2043,-0.05111l2.04305,0c1.53222,-0.2043 3.06443,-0.715 4.39248,-1.43013c1.22569,-0.715 2.34943,-1.63444 3.26873,-2.86013c0.05111,-0.05111 0.07667,-0.10222 0.10222,-0.15333c0.02556,-0.05097 0.05097,-0.10208 0.10208,-0.15319c0.10222,-0.2043 0.2043,-0.30639 0.40861,-0.51069l0,0c-0.61291,0.51069 -1.32791,0.9193 -2.04305,1.32791c-0.10208,0.10222 -0.30639,0.2043 -0.40861,0.2043c0.81722,-0.715 1.63444,-1.63444 2.14527,-2.65596c1.02152,-1.73652 1.6343,-3.67734 1.6343,-5.82247l0,-0.51083l0,0.00014c-0.30639,0.9193 -0.61291,1.8386 -1.12361,2.65582l0.01431,-0.05c0.23667,-0.8225 1.27208,-4.42123 -0.62722,-8.01982l0,0.10208l0.00014,0.02889c0.01069,0.03375 0.02111,0.0675 0.03153,0.10139c0.01514,0.01861 0.0375,0.04097 0.07042,0.07403l0.00014,0c0.40861,1.43013 0.61291,2.96235 0.40861,4.49456c-0.61291,5.2097 -4.90331,9.29579 -10.01079,9.7044c-0.90291,0.06681 -1.7868,0.02417 -2.63888,-0.11583c-5.33942,-0.77708 -9.44037,-5.37428 -9.44037,-10.92925c0,-0.62361 0.05167,-1.23513 0.15097,-1.83041c0.66027,-4.2822 3.85845,-7.79299 7.94441,-8.88258c0.9193,-0.30646 1.94082,-0.40861 2.86026,-0.40861c1.12361,0 2.14513,0.2043 3.16665,0.51076l0.30639,-1.53226l0.71805,1.88482c0.8143,0.32589 1.58069,0.74593 2.28596,1.24666c-0.2025,-0.36771 -0.48875,-0.83025 -0.85888,-1.29279c0,0 1.46416,1.05738 2.6504,2.88182c0.17153,0.18899 0.33667,0.384 0.495,0.58455c-0.18958,0.1075 -0.40361,0.25236 -0.52528,0.42361c0.62139,0.17861 1.49694,1.01333 2.03124,2.12291c0.01889,0.04444 0.03736,0.08917 0.05556,0.13403c0.36903,0.06625 1.58624,0.33417 2.4436,1.10583l0.10222,0c0.40861,-1.12374 1.53222,-1.73666 1.53222,-1.73666c0,0 0.10222,-1.53222 0.81722,-2.34943l-0.51069,0zm-4.69901,-3.47309c-1.02152,-0.71505 -2.75804,-1.02151 -2.75804,-1.02151l0.61291,-0.6129l0.10222,-0.51075c0.81708,0.30644 1.32791,0.91934 1.6343,1.32795c0.10222,0.10215 0.2043,0.2043 0.2043,0.30644c0.2043,0.30646 0.2043,0.51076 0.2043,0.51076z" clip-rule="evenodd" fill-rule="evenodd"/>
   <path stroke="null" id="svg_10" fill="#D44071" d="m28.44309,22.253c0,3.92248 -3.17985,7.10233 -7.10233,7.10233c-3.92262,0 -7.10247,-3.17985 -7.10247,-7.10233c0,-3.92248 3.17985,-7.10233 7.10247,-7.10233c3.92248,0 7.10233,3.17985 7.10233,7.10233z"/>
   <path stroke="#E85485" id="svg_11" stroke-width="2" d="m28.44309,22.253c0,3.92248 -3.17985,7.10233 -7.10233,7.10233c-3.92262,0 -7.10247,-3.17985 -7.10247,-7.10233c0,-3.92248 3.17985,-7.10233 7.10247,-7.10233c3.92248,0 7.10233,3.17985 7.10233,7.10233z"/>
   <path stroke="#D44071" id="svg_12" stroke-width="2" d="m28.44309,22.253c0,3.92248 -3.17985,7.10233 -7.10233,7.10233c-3.92262,0 -7.10247,-3.17985 -7.10247,-7.10233c0,-3.92248 3.17985,-7.10233 7.10247,-7.10233c3.92248,0 7.10233,3.17985 7.10233,7.10233z"/>
   <path stroke="null" id="svg_13" fill="#F25E8F" d="m21.53228,16.954l4.64428,2.68138l0,5.36289l-4.64428,2.68152l-4.64442,-2.68152l0,-5.36289l4.64442,-2.68138z"/>
   <g stroke="null" id="svg_14" clip-path="url(#clip0)">
    <path stroke="null" id="svg_15" fill="white" d="m23.27686,14.99035c0,0 0.20125,1.93934 1.00958,2.74767c0.80833,0.80833 2.74763,1.00958 2.74763,1.00958c0,0 -1.9393,0.20125 -2.74763,1.00958c-0.80833,0.80819 -1.00958,2.74763 -1.00958,2.74763c0,0 -0.20111,-1.93944 -1.00958,-2.74763c-0.80833,-0.80833 -2.74763,-1.00958 -2.74763,-1.00958c0,0 1.9393,-0.20125 2.74763,-1.00958c0.80847,-0.80833 1.00958,-2.74767 1.00958,-2.74767z"/>
   </g>
  </g>
 </g>
</svg>